<svg version="1.1" xmlns="http://www.w3.org/2000/svg" xmlns:xlink="http://www.w3.org/1999/xlink">

    <symbol id="whatsapp" viewBox="0 0 512 512">
        <g>
            <path d="m256 0c-141.363281 0-256 114.636719-256 256s114.636719 256 256 256 256-114.636719 256-256-114.636719-256-256-256zm5.425781 405.050781c-.003906 0 .003907 0 0 0h-.0625c-25.644531-.011719-50.84375-6.441406-73.222656-18.644531l-81.222656 21.300781 21.738281-79.375c-13.410156-23.226562-20.464844-49.578125-20.453125-76.574219.035156-84.453124 68.769531-153.160156 153.222656-153.160156 40.984375.015625 79.457031 15.96875 108.382813 44.917969 28.929687 28.953125 44.851562 67.4375 44.835937 108.363281-.035156 84.457032-68.777343 153.171875-153.21875 153.171875zm0 0"/>
            <path d="m261.476562 124.46875c-70.246093 0-127.375 57.105469-127.40625 127.300781-.007812 24.054688 6.726563 47.480469 19.472657 67.75l3.027343 4.816407-12.867187 46.980468 48.199219-12.640625 4.652344 2.757813c19.550781 11.601562 41.964843 17.738281 64.816406 17.746094h.050781c70.191406 0 127.320313-57.109376 127.351563-127.308594.011718-34.019532-13.222657-66.003906-37.265626-90.066406-24.042968-24.0625-56.019531-37.324219-90.03125-37.335938zm74.90625 182.035156c-3.191406 8.9375-18.484374 17.097656-25.839843 18.199219-6.597657.984375-14.941407 1.394531-24.113281-1.515625-5.5625-1.765625-12.691407-4.121094-21.828126-8.0625-38.402343-16.578125-63.484374-55.234375-65.398437-57.789062-1.914063-2.554688-15.632813-20.753907-15.632813-39.59375 0-18.835938 9.890626-28.097657 13.398438-31.925782 3.511719-3.832031 7.660156-4.789062 10.210938-4.789062 2.550781 0 5.105468.023437 7.335937.132812 2.351563.117188 5.507813-.894531 8.613281 6.570313 3.191406 7.664062 10.847656 26.5 11.804688 28.414062.957031 1.917969 1.59375 4.152344.320312 6.707031-1.277344 2.554688-5.519531 8.066407-9.570312 13.089844-1.699219 2.105469-3.914063 3.980469-1.679688 7.8125 2.230469 3.828125 9.917969 16.363282 21.296875 26.511719 14.625 13.039063 26.960938 17.078125 30.789063 18.996094 3.824218 1.914062 6.058594 1.59375 8.292968-.957031 2.230469-2.554688 9.570313-11.175782 12.121094-15.007813 2.550782-3.832031 5.105469-3.191406 8.613282-1.914063 3.511718 1.273438 22.332031 10.535157 26.160156 12.449219 3.828125 1.917969 6.378906 2.875 7.335937 4.472657.960938 1.597656.960938 9.257812-2.230469 18.199218zm0 0"/>
        </g>
    </symbol>

    <symbol id="instagram" viewBox="0 0 512 512">
        <g>
            <path d="m305 256c0 27.0625-21.9375 49-49 49s-49-21.9375-49-49 21.9375-49 49-49 49 21.9375 49 49zm0 0"/>
            <path d="m370.59375 169.304688c-2.355469-6.382813-6.113281-12.160157-10.996094-16.902344-4.742187-4.882813-10.515625-8.640625-16.902344-10.996094-5.179687-2.011719-12.960937-4.40625-27.292968-5.058594-15.503906-.707031-20.152344-.859375-59.402344-.859375-39.253906 0-43.902344.148438-59.402344.855469-14.332031.65625-22.117187 3.050781-27.292968 5.0625-6.386719 2.355469-12.164063 6.113281-16.902344 10.996094-4.882813 4.742187-8.640625 10.515625-11 16.902344-2.011719 5.179687-4.40625 12.964843-5.058594 27.296874-.707031 15.5-.859375 20.148438-.859375 59.402344 0 39.25.152344 43.898438.859375 59.402344.652344 14.332031 3.046875 22.113281 5.058594 27.292969 2.359375 6.386719 6.113281 12.160156 10.996094 16.902343 4.742187 4.882813 10.515624 8.640626 16.902343 10.996094 5.179688 2.015625 12.964844 4.410156 27.296875 5.0625 15.5.707032 20.144532.855469 59.398438.855469 39.257812 0 43.90625-.148437 59.402344-.855469 14.332031-.652344 22.117187-3.046875 27.296874-5.0625 12.820313-4.945312 22.953126-15.078125 27.898438-27.898437 2.011719-5.179688 4.40625-12.960938 5.0625-27.292969.707031-15.503906.855469-20.152344.855469-59.402344 0-39.253906-.148438-43.902344-.855469-59.402344-.652344-14.332031-3.046875-22.117187-5.0625-27.296874zm-114.59375 162.179687c-41.691406 0-75.488281-33.792969-75.488281-75.484375s33.796875-75.484375 75.488281-75.484375c41.6875 0 75.484375 33.792969 75.484375 75.484375s-33.796875 75.484375-75.484375 75.484375zm78.46875-136.3125c-9.742188 0-17.640625-7.898437-17.640625-17.640625s7.898437-17.640625 17.640625-17.640625 17.640625 7.898437 17.640625 17.640625c-.003906 9.742188-7.898437 17.640625-17.640625 17.640625zm0 0"/>
            <path d="m256 0c-141.363281 0-256 114.636719-256 256s114.636719 256 256 256 256-114.636719 256-256-114.636719-256-256-256zm146.113281 316.605469c-.710937 15.648437-3.199219 26.332031-6.832031 35.683593-7.636719 19.746094-23.246094 35.355469-42.992188 42.992188-9.347656 3.632812-20.035156 6.117188-35.679687 6.832031-15.675781.714844-20.683594.886719-60.605469.886719-39.925781 0-44.929687-.171875-60.609375-.886719-15.644531-.714843-26.332031-3.199219-35.679687-6.832031-9.8125-3.691406-18.695313-9.476562-26.039063-16.957031-7.476562-7.339844-13.261719-16.226563-16.953125-26.035157-3.632812-9.347656-6.121094-20.035156-6.832031-35.679687-.722656-15.679687-.890625-20.6875-.890625-60.609375s.167969-44.929688.886719-60.605469c.710937-15.648437 3.195312-26.332031 6.828125-35.683593 3.691406-9.808594 9.480468-18.695313 16.960937-26.035157 7.339844-7.480469 16.226563-13.265625 26.035157-16.957031 9.351562-3.632812 20.035156-6.117188 35.683593-6.832031 15.675781-.714844 20.683594-.886719 60.605469-.886719s44.929688.171875 60.605469.890625c15.648437.710937 26.332031 3.195313 35.683593 6.824219 9.808594 3.691406 18.695313 9.480468 26.039063 16.960937 7.476563 7.34375 13.265625 16.226563 16.953125 26.035157 3.636719 9.351562 6.121094 20.035156 6.835938 35.683593.714843 15.675781.882812 20.683594.882812 60.605469s-.167969 44.929688-.886719 60.605469zm0 0"/>
        </g>
    </symbol>

    <symbol id="vk" viewBox="0 0 97.75 97.75">
        <path d="M48.875,0C21.883,0,0,21.882,0,48.875S21.883,97.75,48.875,97.75S97.75,75.868,97.75,48.875S75.867,0,48.875,0z
         M73.667,54.161c2.278,2.225,4.688,4.319,6.733,6.774c0.906,1.086,1.76,2.209,2.41,3.472c0.928,1.801,0.09,3.776-1.522,3.883
        l-10.013-0.002c-2.586,0.214-4.644-0.829-6.379-2.597c-1.385-1.409-2.67-2.914-4.004-4.371c-0.545-0.598-1.119-1.161-1.803-1.604
        c-1.365-0.888-2.551-0.616-3.333,0.81c-0.797,1.451-0.979,3.059-1.055,4.674c-0.109,2.361-0.821,2.978-3.19,3.089
        c-5.062,0.237-9.865-0.531-14.329-3.083c-3.938-2.251-6.986-5.428-9.642-9.025c-5.172-7.012-9.133-14.708-12.692-22.625
        c-0.801-1.783-0.215-2.737,1.752-2.774c3.268-0.063,6.536-0.055,9.804-0.003c1.33,0.021,2.21,0.782,2.721,2.037
        c1.766,4.345,3.931,8.479,6.644,12.313c0.723,1.021,1.461,2.039,2.512,2.76c1.16,0.796,2.044,0.533,2.591-0.762
        c0.35-0.823,0.501-1.703,0.577-2.585c0.26-3.021,0.291-6.041-0.159-9.05c-0.28-1.883-1.339-3.099-3.216-3.455
        c-0.956-0.181-0.816-0.535-0.351-1.081c0.807-0.944,1.563-1.528,3.074-1.528l11.313-0.002c1.783,0.35,2.183,1.15,2.425,2.946
        l0.01,12.572c-0.021,0.695,0.349,2.755,1.597,3.21c1,0.33,1.66-0.472,2.258-1.105c2.713-2.879,4.646-6.277,6.377-9.794
        c0.764-1.551,1.423-3.156,2.063-4.764c0.476-1.189,1.216-1.774,2.558-1.754l10.894,0.013c0.321,0,0.647,0.003,0.965,0.058
        c1.836,0.314,2.339,1.104,1.771,2.895c-0.894,2.814-2.631,5.158-4.329,7.508c-1.82,2.516-3.761,4.944-5.563,7.471
        C71.48,50.992,71.611,52.155,73.667,54.161z"/>
    </symbol>

    <symbol id="location" viewBox="0 0 34 34">
        <path d="M17.026 6.9043C13.8618 6.9043 11.2875 9.47858 11.2875 12.6425C11.2875 15.8066 13.8618 18.3809 17.026 18.3809C20.1901 18.3809 22.7642 15.8066 22.7642 12.6425C22.7642 9.47858 20.1899 6.9043 17.026 6.9043V6.9043Z"/>
        <path d="M17.0776 0.000259399L17.0244 0C10.0538 0 4.38287 5.6715 4.38287 12.6428C4.38287 16.4648 6.33641 19.4458 8.51302 22.4144L17.0076 33.9999C17.0076 33.9999 25.0365 23.0995 25.5387 22.4147C27.7153 19.4461 29.6688 16.4651 29.6688 12.6431C29.6688 5.68888 24.0256 0.0277557 17.0776 0.000259399V0.000259399ZM17.026 20.3729C12.7635 20.3729 9.29589 16.9053 9.29589 12.6428C9.29589 8.38066 12.7635 4.91301 17.026 4.91301C21.2884 4.91301 24.7561 8.38066 24.7561 12.6428C24.7561 16.9053 21.2882 20.3729 17.026 20.3729Z"/>
    </symbol>

    <symbol id="tel" viewBox="0 0 30 30">
        <path d="M22.2897 12.6975C22.6898 10.9896 22.1901 9.23108 20.9528 7.99375C19.7152 6.75641 17.9567 6.25653 16.2488 6.65684L16.65 8.36888C17.7617 8.10865 18.9052 8.4332 19.7093 9.23726C20.5133 10.0413 20.8379 11.1851 20.5774 12.2963L22.2897 12.6975Z"/>
        <path d="M22.4261 6.5203C24.2052 8.29941 24.9234 10.8292 24.3473 13.2872L26.0596 13.6884C26.7753 10.6338 25.882 7.48916 23.6696 5.27678C22.5689 4.17609 21.1975 3.37774 19.7038 2.9685C18.2577 2.57231 16.7203 2.54393 15.2577 2.88656L15.659 4.59883C18.1172 4.02274 20.647 4.7412 22.4261 6.5203V6.5203Z"/>
        <path d="M3.4023 2.00753L5.46842 -0.0585938L13.5068 7.97976L11.4407 10.0459L3.4023 2.00753Z"/>
        <path d="M19.9537 18.5588L22.0198 16.4927L30.0582 24.531L27.9921 26.5971L19.9537 18.5588Z"/>
        <path d="M14.0934 15.9791C12.6306 14.5166 11.3562 12.9748 10.2951 11.3871L2.15901 3.25098L1.34053 4.06946L1.31649 4.09441C-0.244486 5.78379 -0.35641 8.63613 1.00132 12.1261C2.27528 15.401 4.72043 18.948 7.88611 22.1136C11.0898 25.3173 14.6736 27.7764 17.9778 29.0383C19.5568 29.6414 21.0002 29.9414 22.2622 29.9414C23.8248 29.9414 25.1088 29.4809 26.0241 28.5656L26.749 27.8407L18.6852 19.7772C17.0961 18.7147 15.5541 17.4399 14.0934 15.9791V15.9791Z"/>
    </symbol>

    <symbol id="clock" viewBox="0 0 18 18">
        <path d="M9 3.3396C5.87906 3.3396 3.33984 5.87868 3.33984 8.99976C3.33984 12.1208 5.87906 14.6599 9 14.6599C12.1209 14.6599 14.6602 12.1208 14.6602 8.99976C14.6602 5.87868 12.1209 3.3396 9 3.3396ZM12.0821 9.5271H8.47266V4.65205H9.52734V8.47241H12.0821V9.5271Z"/>
        <path d="M15.364 2.63579C13.6641 0.935928 11.4039 -0.000244141 9 -0.000244141C6.59605 -0.000244141 4.33589 0.935928 2.63603 2.63579C0.936172 4.33565 0 6.59581 0 8.99976C0 11.4037 0.936172 13.6639 2.63603 15.3637C4.33589 17.0636 6.59605 17.9998 9 17.9998C11.4039 17.9998 13.6641 17.0636 15.364 15.3637C17.0638 13.6639 18 11.4037 18 8.99976C18 6.59581 17.0638 4.33565 15.364 2.63579ZM9 15.7146C5.29747 15.7146 2.28516 12.7023 2.28516 8.99976C2.28516 5.29723 5.29747 2.28491 9 2.28491C12.7025 2.28491 15.7148 5.29723 15.7148 8.99976C15.7148 12.7023 12.7025 15.7146 9 15.7146Z"/>
    </symbol>

    <symbol id="e-mail" viewBox="0 0 20 20">
        <path d="M10 12.6787L0 4.83643V16.5036H20V4.83643L10 12.6787Z"/>
        <path d="M19.7853 3.51538H0.214722L10 11.1893L19.7853 3.51538Z"/>
    </symbol>


    <symbol id="bag" viewBox="0 0 52 46">
        <path d="M15.0124 4V10.321H17.3581V5.28396C17.3581 4.17939 18.2535 3.28396 19.3581 3.28396H32.1496C33.2542 3.28396 34.1496 4.17939 34.1496 5.28396V10.321H36.5927V4C36.5927 1.79086 34.8018 0 32.5927 0H19.0124C16.8033 0 15.0124 1.79086 15.0124 4Z" fill="white"/>
        <path d="M3.05176e-05 14.3314C3.05176e-05 11.0177 2.68632 8.33142 6.00003 8.33142H45.6051C48.9188 8.33142 51.6051 11.0177 51.6051 14.3314V39.6017C51.6051 42.9154 48.9188 45.6017 45.6051 45.6017H6.00003C2.68632 45.6017 3.05176e-05 42.9155 3.05176e-05 39.6017V14.3314Z" fill="white"/>
        <path d="M23.619 23.9083V17C23.619 16.4477 24.0668 16 24.619 16H27.381C27.9332 16 28.381 16.4477 28.381 17V23.9083H35C35.5523 23.9083 36 24.356 36 24.9083V27.851C36 28.4033 35.5523 28.851 35 28.851H28.381V35.7593C28.381 36.3116 27.9332 36.7593 27.381 36.7593H24.619C24.0668 36.7593 23.619 36.3116 23.619 35.7593V28.851H17C16.4477 28.851 16 28.4033 16 27.851V24.9083C16 24.356 16.4477 23.9083 17 23.9083H23.619Z" fill="#05474D"/>
    </symbol>


    <symbol id="quotation-marks" viewBox="0 0 39 35">
        <path d="M23.3321 27.5606C22.3568 27.9696 21.9478 29.1337 22.3883 30.0775L23.9299 33.3181C24.3703 34.2302 25.44 34.6395 26.3839 34.2302C29.0581 33.0975 31.3548 31.6188 33.1796 29.8255C35.4133 27.7179 36.9235 25.2954 37.7415 22.6212C38.5595 19.9152 38.9999 16.2345 38.9999 11.5467L38.9999 1.88803C38.9999 0.849804 38.1505 0.000343248 37.1123 0.000343158L24.7479 0.000342077C23.7097 0.000341986 22.8602 0.849803 22.8602 1.88803L22.8602 14.2524C22.8602 15.291 23.7096 16.1401 24.7479 16.1401L30.6626 16.1401C30.5997 19.318 29.8446 21.8661 28.4603 23.7856C27.3277 25.3265 25.6288 26.585 23.3321 27.5606Z"/>
        <path d="M1.12028 27.5606C0.144978 27.9696 -0.263708 29.1337 0.17644 30.0775L1.71805 33.2863C2.15851 34.1987 3.22821 34.6077 4.17205 34.1987C6.81482 33.0661 9.08036 31.5874 10.9363 29.8255C13.1704 27.6861 14.7117 25.2636 15.53 22.5894C16.348 19.9469 16.7567 16.2656 16.7567 11.5464L16.7567 1.88771C16.7567 0.84948 15.9072 1.89992e-05 14.869 1.89085e-05L2.50459 1.78275e-05C1.46636 1.77368e-05 0.616902 0.849478 0.616902 1.88771L0.616901 14.2521C0.616901 15.2906 1.46636 16.1398 2.50459 16.1398L8.45082 16.1398C8.38789 19.3177 7.6325 21.8658 6.24851 23.7852C5.1159 25.3265 3.41697 26.585 1.12028 27.5606Z"/>
    </symbol>
    
</svg>
