<?xml version="1.0" encoding="utf-8"?>

<svg version="1.1" xmlns="http://www.w3.org/2000/svg" viewBox="0 0 95 75" xml:space="preserve">
	<style type="text/css">
		.st0{
			fill:url(#paint0_linear);
			stroke:url(#paint1_linear);
		}
		.st1{
			fill:url(#paint2_linear);
			stroke:url(#paint3_linear);

		}
	</style>
	<g>
		<path  class="st0" d="M74.4669 7.12015C68.4934 1.40345 61.7315 1.41125 56.6771 2.69402C51.6418 3.97172 46.3583 3.97172 41.323 2.69402C36.2686 1.41125 29.5067 1.40345 23.5328 7.12015C12.2141 17.9519 21.3222 37.301 24.0635 40.6339C26.8049 43.9668 26.8931 48.4104 28.8386 57.4834C30.7841 66.5563 33.2599 75.1661 38.2118 73.8701C43.1638 72.574 44.4903 66.2787 45.7282 57.8538C45.8135 57.2744 45.9021 56.7309 45.9938 56.2201C46.6231 52.7173 51.3766 52.7173 52.006 56.2201C52.0976 56.7305 52.1866 57.2744 52.2719 57.8538C53.5098 66.2787 54.8363 72.574 59.7883 73.8701C64.7402 75.1661 67.216 66.5563 69.1615 57.4834C71.107 48.4104 71.1952 43.9668 73.9366 40.6339C76.6779 37.301 85.786 17.9519 74.4669 7.12015ZM39.8951 11.3283C39.7581 12.3928 38.8244 13.1406 37.8085 13.0018C37.4447 12.9546 29.3723 12.0216 27.1043 21.2481C26.8879 22.1277 26.1315 22.7122 25.3022 22.7122C25.1484 22.7122 24.9923 22.6923 24.8367 22.6502C23.8408 22.382 23.2412 21.3191 23.4975 20.2765C25.9826 10.1664 34.265 8.56979 38.2975 9.13632C39.3168 9.2798 40.0318 10.2612 39.8951 11.3283Z"/>
		<path class="st1" d="M9.36181 5.22279C13.0292 4.20514 22.5644 7.00378 22.5644 7.00378C22.5644 7.00378 19.1415 11.0744 18.408 13.6185C17.6745 16.1627 18.1635 17.1804 19.386 18.9613C20.6084 20.7422 24.7648 25.5762 24.7648 25.5762L28.4322 29.6469C28.4322 29.6469 33.8804 25.5191 37.2727 23.0664C40.665 20.6138 48.8065 16.0957 55.9982 13.1268C63.1899 10.1578 71.0597 8.47961 74.452 7.96326C77.8443 7.44691 84.4932 6.93057 87.8855 9.12504C91.2778 11.3195 92.2277 14.6758 91.9563 17.5157C91.6849 20.3556 90.0566 22.55 88.2926 25.7772C86.5286 29.0044 80.9652 34.5551 80.1511 35.4587C79.4998 36.1816 76.8945 37.9974 75.6732 38.8149C76.3065 38.1265 77.6272 36.0783 77.8443 33.3933C78.1157 30.0371 77.5729 28.6171 76.3517 27.0681C75.1305 25.519 71.4668 25.2609 68.2102 25.3899C64.9536 25.519 63.3254 26.1645 60.4759 26.8099C57.6264 27.4553 53.42 29.5207 51.3847 30.4243C49.3493 31.3279 44.6 34.426 42.9717 35.4587C41.6691 36.2849 39.1724 38.3847 38.0868 39.3313C38.3582 39.5034 39.0095 39.9767 39.4437 40.4931C39.9865 41.1385 43.3788 43.4621 44.0573 43.9784C44.7357 44.4948 52.0631 48.3674 55.184 49.7873C58.305 51.2073 63.3253 52.4981 66.0392 52.8854L66.1673 52.9037C68.8075 53.2811 70.4925 53.522 70.9737 51.018C71.4627 48.4739 71.5599 47.759 71.9517 46.4385C72.3435 45.118 72.1962 45.4208 72.4407 44.6576C72.6852 43.8943 77.3305 48.9827 80.5089 53.0534C83.6873 57.1241 84.9098 63.2301 83.6873 67.0464C82.4648 70.8626 79.6083 71.3448 75.6732 70.8284C71.7382 70.3121 62.9185 68.3758 53.5557 64.245C44.193 60.1142 37.2727 55.4671 35.373 54.1762C32.5885 52.2842 27.4542 47.4561 27.4542 47.4561C27.4542 47.4561 26.4762 47.4562 26.9652 51.018C27.4542 54.5799 28.9212 60.9403 28.9212 60.9403C28.9212 60.9403 21.8309 65.7688 15.4741 64.245C9.11733 62.7212 5.93894 58.3097 6.67241 53.0534C7.40589 47.7971 18.408 38.0427 18.408 38.0427C18.408 38.0427 14.5033 34.7189 11.5622 31.9366C8.87284 29.3925 6.4279 26.3395 5.44994 24.5586C4.47198 22.7776 2.1458 19.2003 2.02706 15.3995C1.94757 12.8553 1.96192 11.4224 3.24951 9.29343C4.73224 6.84183 5.69444 6.24045 9.36181 5.22279Z"/>
	</g>
	<linearGradient id="paint0_linear" x1="49" y1="30" x2="33" y2="74" gradientUnits="userSpaceOnUse">
		<stop stop-color="#E1E4EA"/>
		<stop offset="1" stop-color="#242930" stop-opacity="0.14"/>
	</linearGradient>
	<linearGradient id="paint1_linear" x1="63.5" y1="6.5" x2="36" y2="71" gradientUnits="userSpaceOnUse">
		<stop stop-color="#E1E4E9"/>
		<stop offset="1" stop-color="#D3D4D6"/>
	</linearGradient>
	<linearGradient id="paint2_linear" x1="78.8" y1="16.6715" x2="8.25406" y2="52.6754" gradientUnits="userSpaceOnUse">
		<stop stop-color="#08818C"/>
		<stop offset="1" stop-color="#6FA2F2"/>
	</linearGradient>
	<linearGradient id="paint3_linear" x1="12.5" y1="58.5" x2="88" y2="12.5" gradientUnits="userSpaceOnUse">
		<stop stop-color="#6FA2F2"/>
		<stop offset="1" stop-color="#08818C"/>
	</linearGradient>
</svg>