<svg version="1.1" xmlns="http://www.w3.org/2000/svg" xmlns:xlink="http://www.w3.org/1999/xlink">

    <symbol id="item-1" viewBox="0 0 83 83">
        <path d="M24.3018 65.2935C22.5408 65.2935 20.8837 64.6074 19.6387 63.3625C18.3923 62.1175 17.7077 60.4603 17.7077 58.6994C17.7077 56.9384 18.3937 55.2812 19.6387 54.0362L54.0336 19.6407C55.2786 18.3943 56.9358 17.7097 58.6968 17.7097C60.4577 17.7097 62.1149 18.3958 63.3599 19.6407C64.6063 20.8857 65.2909 22.5429 65.2909 24.3039C65.2909 26.0648 64.6048 27.722 63.3599 28.967L28.965 63.3622C27.72 64.6086 26.0628 65.2935 24.3018 65.2935ZM58.697 20.4747C57.6746 20.4747 56.7135 20.8732 55.9898 21.5966L21.5946 55.9918C20.8712 56.7152 20.4727 57.6767 20.4727 58.6991C20.4727 59.7215 20.8712 60.6826 21.5946 61.4063C23.0414 62.852 25.562 62.8532 27.0088 61.4063L61.404 27.0111C62.1274 26.2877 62.5259 25.3263 62.5259 24.3039C62.5259 23.2814 62.1274 22.3203 61.404 21.5966C60.6806 20.8732 59.7192 20.4747 58.697 20.4747Z"/>
        <path d="M53.7834 37.9697C53.4293 37.9697 53.0752 37.8341 52.8053 37.5645L45.435 30.1941C44.8942 29.6533 44.8942 28.7791 45.435 28.238L50.3486 23.3243C50.8895 22.7835 51.7637 22.7835 52.3048 23.3243L59.6752 30.6947C60.216 31.2355 60.216 32.1097 59.6752 32.6508L54.7615 37.5645C54.4917 37.8355 54.1375 37.9697 53.7834 37.9697ZM48.3692 29.2161L53.7834 34.6303L56.741 31.6728L51.3267 26.2585L48.3692 29.2161Z"/>
        <path d="M31.6722 60.0823C31.3181 60.0823 30.964 59.9467 30.6942 59.6771L23.3238 52.3067C22.783 51.7659 22.783 50.8917 23.3238 50.3506L28.2375 45.4369C28.7783 44.8961 29.6525 44.8961 30.1936 45.4369L37.564 52.8073C38.1048 53.3481 38.1048 54.2223 37.564 54.7634L32.6503 59.6771C32.3805 59.9467 32.0264 60.0823 31.6722 60.0823ZM26.2577 51.3272L31.672 56.7415L34.6295 53.7839L29.2153 48.3697L26.2577 51.3272Z"/>
        <path d="M62.3835 22.0021C62.0294 22.0021 61.6752 21.8664 61.4054 21.5969C60.8646 21.0561 60.8646 20.1819 61.4054 19.6408L68.7758 12.2704C69.3166 11.7296 70.1908 11.7296 70.7319 12.2704C71.2728 12.8112 71.2728 13.6854 70.7319 14.2265L63.3616 21.5969C63.0917 21.8679 62.7376 22.0021 62.3835 22.0021Z"/>
        <path d="M74.6675 16.661C72.5343 16.661 70.3999 15.8489 68.776 14.225C68.2352 13.6854 68.2352 12.81 68.776 12.2689C69.3168 11.7281 70.1911 11.7281 70.7322 12.2689C72.9012 14.438 76.4343 14.438 78.6034 12.2689C80.7725 10.0983 80.7725 6.56674 78.6034 4.39766C76.4343 2.22858 72.9027 2.22858 70.7322 4.39766C70.1913 4.93847 69.3171 4.93847 68.776 4.39766C68.2352 3.85685 68.2352 2.98116 68.776 2.44152C72.0256 -0.80802 77.3112 -0.80802 80.5607 2.44152C83.8088 5.69105 83.8088 10.9767 80.5607 14.2262C78.9336 15.8489 76.8004 16.661 74.6675 16.661Z"/>
        <path d="M13.2445 71.1366C12.8904 71.1366 12.5363 71.0009 12.2664 70.7314C11.7256 70.1906 11.7256 69.3163 12.2664 68.7752L19.6368 61.4049C20.1776 60.8641 21.0519 60.8641 21.593 61.4049C22.1338 61.9457 22.1338 62.8199 21.593 63.361L14.2226 70.7314C13.9516 71.0009 13.5986 71.1366 13.2445 71.1366Z"/>
        <path d="M8.33114 82.9974C6.19794 82.9974 4.06357 82.1853 2.43939 80.5614C-0.808693 77.3119 -0.808693 72.0263 2.43939 68.7767C5.68892 65.5286 10.9745 65.5272 14.2241 68.7767C14.7649 69.3164 14.7649 70.1918 14.2241 70.7329C13.6833 71.274 12.809 71.2737 12.2679 70.7329C10.0988 68.5638 6.56577 68.5638 4.39669 70.7329C2.22761 72.9034 2.22761 76.435 4.39669 78.6041C6.56577 80.7732 10.0974 80.7732 12.2679 78.6041C12.8087 78.0633 13.683 78.0633 14.2241 78.6041C14.7652 79.1449 14.7649 80.0206 14.2241 80.5602C12.5987 82.1853 10.4655 82.9974 8.33114 82.9974Z"/>
        <path d="M68.0912 77.3352C67.7234 77.3352 67.3719 77.1899 67.1117 76.93L62.7942 72.607C62.2546 72.0677 62.2546 71.192 62.7942 70.6523L69.2711 64.1673C69.5313 63.9071 69.8826 63.7621 70.2507 63.7621C70.6185 63.7621 70.97 63.9074 71.2302 64.1673L75.5477 68.4902C76.087 69.0299 76.087 69.9053 75.5477 70.4449L69.0708 76.93C68.8106 77.1899 68.4576 77.3352 68.0912 77.3352ZM65.7285 71.6289L68.0912 73.9943L72.6134 69.468L70.2507 67.1026L65.7285 71.6289Z"/>
        <path d="M75.6468 83C74.0532 83 72.555 82.3789 71.4291 81.2515L40.2901 50.0781C39.7505 49.5373 39.7505 48.6631 40.2901 48.122L46.7711 41.641C47.0313 41.3808 47.3825 41.2358 47.7492 41.2358C48.1158 41.2358 48.4685 41.3811 48.7272 41.641L79.8633 72.8118C82.1887 75.1387 82.1887 78.9235 79.8633 81.2501C78.7385 82.3804 77.2403 83 75.6468 83ZM43.2258 49.1015L73.3878 79.2968C74.5955 80.5059 76.701 80.5045 77.9086 79.2968C79.1565 78.0478 79.1565 76.017 77.9086 74.7691L47.7492 44.5778L43.2258 49.1015Z"/>
        <path d="M34.9839 42.0284C34.6161 42.0284 34.2646 41.8831 34.0044 41.6232L28.5458 36.1603L23.5603 35.1615C23.292 35.1075 23.0458 34.9763 22.8535 34.7826L4.50212 16.4104C-1.53052 10.3723 2.96953 1.15512 3.16439 0.766577C3.36362 0.368115 3.74137 0.0901245 4.1798 0.0180746C4.61705 -0.0539752 5.06656 0.0912913 5.38043 0.406911L40.2847 35.347C40.8243 35.8867 40.8243 36.7621 40.2847 37.3032L35.9631 41.6247C35.7032 41.882 35.3517 42.0284 34.9839 42.0284ZM24.5148 32.5318L29.5002 33.5306C29.7686 33.5846 30.0148 33.7158 30.207 33.9084L34.9836 38.689L37.3478 36.3248L4.92392 3.86385C4.09666 6.46464 3.23206 11.2246 6.45943 14.4561L24.5148 32.5318Z"/>
    </symbol>


    <symbol id="item-2" viewBox="0 0 83 83">
        <path d="M76.8828 11.8164C72.549 5.28829 67.0129 1.69318 61.2942 1.69318C55.575 1.69318 50.0389 5.28829 45.7055 11.8164C43.9584 14.4481 41.91 20.4289 41.4996 20.4289C41.0653 20.4289 39.0404 14.4481 37.2933 11.8164C32.9599 5.28829 27.4242 1.69318 21.7046 1.69318C15.9855 1.69318 10.4493 5.28829 6.11634 11.8164C2.28656 17.5858 0 24.8624 0 31.2809C0 37.179 1.96171 41.0126 5.99779 43.0013C9.71733 44.8335 14.6966 44.8363 20.3432 44.8244C21.2436 44.8227 22.1671 44.8227 23.0664 44.8244C23.5109 44.8256 23.9514 44.8264 24.3878 44.8264C29.4862 44.8264 33.9853 44.689 37.4116 43.0009C39.1615 42.1392 40.9137 39.3567 41.4996 39.3567C42.079 39.3567 43.838 42.1392 45.5876 43.0013C49.3063 44.8335 54.2867 44.8363 59.9329 44.8244C60.8333 44.8227 61.7564 44.8227 62.6562 44.8244C63.1006 44.8256 63.5412 44.8264 63.9775 44.8264C69.0755 44.8264 73.5747 44.689 77.0018 43.0009C81.0383 41.0122 83.0004 37.1786 83.0004 31.2809C82.9994 24.8624 80.7126 17.5858 76.8828 11.8164ZM24.3876 41.0051C23.9545 41.0051 23.5163 41.0039 23.0746 41.0031C22.6222 41.0023 22.1654 41.0011 21.7046 41.0011C21.2446 41.0011 20.7876 41.0023 20.3347 41.0031C19.8929 41.0039 19.4547 41.0051 19.0221 41.0051C8.45276 41.0051 3.82046 40.0853 3.82046 31.2809C3.82046 25.5844 5.8687 19.0978 9.29966 13.9297C12.8498 8.58144 17.371 5.51404 21.7044 5.51404C26.0382 5.51404 30.5594 8.58164 34.1096 13.9297C36.0717 16.885 37.5802 20.2714 38.5131 23.6945C38.5692 23.901 38.7007 24.3142 38.2618 24.3142H32.1821C32.1821 24.3142 31.6973 24.2735 31.6973 23.598C31.6973 23.3362 31.6973 22.5501 31.6973 22.5501C31.6973 21.0762 30.4984 19.8775 29.0247 19.8775H16.8052C15.3317 19.8775 14.1326 21.076 14.1326 22.5501V30.1085C14.1326 31.582 15.3315 32.7811 16.8052 32.7811H29.0247C30.4982 32.7811 31.6973 31.5822 31.6973 30.1085C31.6973 30.1085 31.6973 29.0255 31.6973 28.6644C31.6973 28.1493 32.2834 28.1355 32.2834 28.1355H39.0389C39.3936 28.1355 39.4191 28.3653 39.4317 28.48C39.535 29.4282 39.5887 30.3647 39.5887 31.2809C39.5887 40.0853 34.9569 41.0051 24.3876 41.0051ZM63.9769 41.0051C63.5434 41.0051 63.1053 41.0039 62.6639 41.0031C62.2116 41.0023 61.7548 41.0011 61.2944 41.0011C60.8337 41.0011 60.3769 41.0023 59.924 41.0031C59.4818 41.0039 59.0441 41.0051 58.611 41.0051C48.0417 41.0051 43.4098 40.0853 43.4098 31.2809C43.4098 30.3321 43.4672 29.3615 43.578 28.3787C43.5871 28.2976 43.6323 28.1353 43.8857 28.1353H50.5899C50.5899 28.1353 51.3008 28.1914 51.3008 28.7655C51.3008 29.1013 51.3008 30.1083 51.3008 30.1083C51.3008 31.5818 52.4997 32.7809 53.9736 32.7809H66.1936C67.6669 32.7809 68.8658 31.582 68.8658 30.1083V22.5499C68.8658 21.076 67.6673 19.8773 66.1936 19.8773H53.9736C52.5001 19.8773 51.3008 21.0758 51.3008 22.5499C51.3008 22.5499 51.3008 23.4371 51.3008 23.733C51.3008 24.3071 50.7253 24.314 50.7253 24.314H44.6622C44.3836 24.314 44.3864 24.0647 44.4192 23.9399C45.3462 20.4333 46.8805 16.9556 48.8892 13.9295C52.4393 8.58124 56.9606 5.51384 61.2944 5.51384C65.6277 5.51384 70.1486 8.58144 73.6991 13.9295C77.1301 19.0976 79.1783 25.5842 79.1783 31.2807C79.1781 40.0853 74.546 41.0051 63.9769 41.0051Z"/>
        <path d="M68.9448 48.7587C66.0005 47.3081 62.1314 47.3044 57.7366 47.3136C57.0463 47.3152 56.3379 47.3152 55.6482 47.3136C51.2599 47.304 47.3858 47.3081 44.4406 48.7591C43.2309 49.3551 41.9773 51.1602 41.4992 51.1602C41.0143 51.1602 39.7675 49.3549 38.5579 48.7587C35.6135 47.3081 31.7436 47.304 27.35 47.3136C26.659 47.3152 25.9509 47.3152 25.2612 47.3136C20.8729 47.304 16.9988 47.3081 14.0538 48.7591C10.7892 50.3678 9.20201 53.4404 9.20201 58.153C9.20201 63.1635 10.9848 68.8398 13.9707 73.3386C17.3818 78.4771 21.7622 81.3068 26.3053 81.3068C30.8489 81.3068 35.2297 78.4771 38.6408 73.3386C39.7795 71.6225 41.0141 67.7781 41.4986 67.7781C41.926 67.7781 43.2179 71.6227 44.3571 73.3386C47.7682 78.4771 52.1486 81.3068 56.6917 81.3068C61.2348 81.3068 65.6152 78.4771 69.0267 73.3386C72.0122 68.8402 73.795 63.1635 73.795 58.153C73.7962 53.4398 72.2094 50.3672 68.9448 48.7587ZM39.115 60.1228H34.9859C34.9859 60.1228 34.3933 60.1688 34.3933 59.5862C34.3933 59.477 34.3933 59.1491 34.3933 59.1491C34.3933 57.7882 33.2862 56.6807 31.925 56.6807H22.5459C21.185 56.6807 20.0775 57.7882 20.0775 59.1491V64.9507C20.0775 66.3119 21.185 67.419 22.5459 67.419H31.925C33.2862 67.419 34.3933 66.3119 34.3933 64.9507C34.3933 64.9507 34.3933 64.5371 34.3933 64.3993C34.3933 63.9601 34.9099 63.9443 34.9099 63.9443H38.431C38.735 63.9443 38.6839 64.1658 38.6517 64.2766C36.6521 71.1009 31.7081 77.4861 26.3061 77.4861C19.2776 77.4861 13.0239 66.6753 13.0239 58.1536C13.0239 51.7683 16.2718 51.1334 24.2467 51.1334C24.5793 51.1334 24.9149 51.1342 25.2537 51.135C25.9493 51.1367 26.6628 51.1367 27.3587 51.135C27.698 51.1342 28.0336 51.1334 28.3657 51.1334C36.3412 51.1334 39.5894 51.7683 39.5894 58.1536C39.5894 58.6179 39.5705 59.0887 39.5343 59.5643C39.5197 59.7495 39.5456 60.1228 39.115 60.1228ZM56.6925 77.4859C51.2794 77.4859 46.3263 71.0733 44.3348 64.2331C44.3066 64.137 44.2912 63.9445 44.5782 63.9445H48.1417C48.1417 63.9445 48.6055 63.8422 48.6055 64.3488C48.6055 64.4994 48.6055 64.9507 48.6055 64.9507C48.6055 66.3119 49.713 67.419 51.0739 67.419H60.453C61.8138 67.419 62.9213 66.3119 62.9213 64.9507V59.1493C62.9213 57.7884 61.8138 56.6809 60.453 56.6809H51.0739C49.713 56.6809 48.6055 57.7884 48.6055 59.1493C48.6055 59.1493 48.6055 59.4897 48.6055 59.6032C48.6055 60.076 48.091 60.1228 48.091 60.1228H43.9532C43.4719 60.1228 43.4869 59.8306 43.4753 59.6851C43.4326 59.1681 43.4105 58.6566 43.4105 58.153C43.4105 51.7677 46.658 51.1328 54.6339 51.1328C54.9661 51.1328 55.3017 51.1336 55.6405 51.1344C56.336 51.1361 57.0496 51.1361 57.7455 51.1344C58.0843 51.1336 58.4203 51.1328 58.7525 51.1328C66.7278 51.1328 69.9762 51.7677 69.9762 58.153C69.9756 66.6751 63.7214 77.4859 56.6925 77.4859Z"/>
    </symbol>

    <symbol id="item-3" viewBox="0 0 88 88">
        <path d="M39.1528 26.4069C37.3106 26.4078 35.4875 26.7821 33.7937 27.5068C29.0706 29.5205 23.7304 29.5205 19.0071 27.5068C12.0816 24.5429 4.06479 27.7547 1.10089 34.6802C0.376008 36.374 0.00183218 38.197 0.000915527 40.0393C0.00861538 45.7652 1.34197 51.4114 3.89631 56.536L5.90414 60.5546L8.39742 82.9795C8.74117 86.0765 11.5305 88.3086 14.6275 87.9648C17.1707 87.6825 19.2055 85.7242 19.5849 83.1937L22.7984 61.7675C23.0941 59.7782 24.9466 58.4053 26.9359 58.701C28.5215 58.9367 29.7667 60.1817 30.0025 61.7675L33.2159 83.1937C33.6779 86.2752 36.5507 88.3989 39.6323 87.937C42.1628 87.5576 44.1211 85.5227 44.4034 82.9795L45.8026 70.3987L42.8854 70.0746L41.4877 82.6598C41.3249 84.1462 39.9879 85.2191 38.5015 85.0561C37.2781 84.9221 36.2991 83.9798 36.1184 82.7625L32.905 61.3319C32.364 57.7396 29.0132 55.2659 25.4209 55.8069C22.5664 56.2368 20.3256 58.4775 19.8959 61.3319L16.6825 82.7581C16.4628 84.2372 15.0858 85.2581 13.6067 85.0385C12.3894 84.8577 11.4471 83.8788 11.3131 82.6554L8.79195 59.9709C8.7716 59.7989 8.7221 59.6317 8.64529 59.4766L6.51866 55.2234C4.16782 50.5065 2.94079 45.3095 2.93419 40.0393C2.93529 34.1263 7.72955 29.3337 13.6425 29.3346C15.0899 29.3348 16.5221 29.6287 17.8528 30.1981C23.3133 32.5271 29.4875 32.5271 34.948 30.1981C40.3841 27.8718 46.6769 30.3928 49.0032 35.8289C49.5726 37.1595 49.8663 38.5919 49.8666 40.0393C49.8602 45.3111 48.6328 50.5098 46.2807 55.2278L44.1468 59.4766C44.0699 59.6317 44.0204 59.7989 44.0001 59.9709L43.8256 61.5402L46.7412 61.8643L46.8879 60.5546L48.8957 56.536C51.4532 51.4121 52.7895 45.7658 52.7999 40.0393C52.7959 32.5062 46.6859 26.4028 39.1528 26.4069Z"/>
        <path d="M86.5326 0H79.1994V2.93328H85.066V16.133C85.066 25.043 77.843 32.2661 68.933 32.2661C60.023 32.2661 52.7999 25.043 52.7999 16.133V2.93328H58.6665V0H51.3333C50.5233 0 49.8667 0.656688 49.8667 1.46664V16.133C49.8826 26.0847 57.5447 34.3527 67.4663 35.1245V60.1322C67.4663 62.5622 65.4964 64.5321 63.0664 64.5321H44.0001C41.5701 64.5321 39.6002 62.5622 39.6002 60.1322V48.2524C43.5684 47.4425 46.1286 43.5689 45.3186 39.6007C44.5087 35.6325 40.6351 33.0723 36.6669 33.8823C32.6987 34.6922 30.1385 38.5658 30.9485 42.534C31.5364 45.4139 33.787 47.6645 36.6669 48.2524V60.1322C36.6717 64.1801 39.9522 67.4606 44.0001 67.4654H63.0664C67.1143 67.4606 70.3948 64.1801 70.3996 60.1322V35.1245C80.3212 34.3527 87.9833 26.0847 87.9993 16.133V1.46664C87.9993 0.656688 87.3426 0 86.5326 0ZM36.6669 41.0659V45.196C34.9152 44.5767 33.7413 42.9238 33.7336 41.0659C33.7235 38.6359 35.6854 36.6579 38.1152 36.6478C40.5452 36.6377 42.5232 38.5996 42.5333 41.0294C42.541 42.9007 41.3644 44.5721 39.6 45.196V41.0659H36.6669Z"/>
        <path d="M10.9201 32.5125C7.76026 34.6138 5.86334 38.1585 5.86756 41.9532V43.9992H8.80084V41.9532C8.79772 39.1393 10.2048 36.5109 12.5481 34.9529L10.9201 32.5125Z"/>
    </symbol>

    <symbol id="item-4" viewBox="0 0 85 84">
        <path d="M80.8585 24.7365C78.043 20.8374 74.1664 18.69 69.9446 18.69C67.6987 18.69 65.3742 19.8116 63.6097 20.8525C63.5136 20.9091 63.3094 20.956 63.3038 20.7158C62.9268 15.5106 61.2582 10.9044 58.5261 7.12119C55.2091 2.5287 50.6444 0 45.6716 0C41.7738 0 37.618 2.83508 34.581 4.90731C33.659 5.5362 32.1463 6.68754 31.7047 6.68754C31.2656 6.68754 29.7657 5.54314 28.8411 4.91128C25.8119 2.83855 21.6636 0 17.7383 0C12.7658 0 8.20081 2.5287 4.88378 7.12119C1.73425 11.4815 0 17.2194 0 23.2765C0 31.8418 2.48211 44.0077 6.63929 55.8209C8.48949 61.079 10.4611 65.6258 12.3401 68.9702C14.6279 73.0413 16.6227 75.0202 18.4382 75.0202C19.2779 75.0202 20.8134 74.5905 21.6561 71.7073C22.4124 69.1196 23.0909 66.16 23.8139 63.0051C25.5876 55.2612 28.0172 44.6545 31.5842 44.6545C31.5842 44.6545 31.9479 44.6689 31.9723 45.0442C32.7521 51.4299 34.5299 58.5238 37.0814 65.7745C38.6361 70.192 40.2931 74.0135 41.8737 76.8262C43.8306 80.3076 45.5558 82 47.1479 82C47.9052 82 49.2881 81.6177 50.0362 79.0575C50.6729 76.8796 51.2423 74.3948 51.8471 71.756C53.3137 65.352 55.3228 56.5813 58.1526 56.5813H58.3544C59.5707 56.5813 60.6993 57.974 61.805 60.8394C62.9695 63.8545 63.8628 67.901 64.7265 71.815C65.3044 74.432 65.8503 76.9042 66.4685 79.0491C67.2027 81.5971 68.5733 81.9792 69.3252 81.9794C70.9116 81.9794 72.636 80.2612 74.5959 76.7275C76.1721 73.8867 77.8325 70.0283 79.3975 65.5695C82.9051 55.5711 85 45.4255 85 38.4304C84.9996 33.2968 83.5292 28.4334 80.8585 24.7365ZM31.5065 38.4306C31.5065 39.0851 31.5244 39.7762 31.5595 40.4937C31.5627 40.5569 31.597 40.7715 31.3463 40.7507C28.5357 40.7594 26.4472 43.1335 24.5031 48.1445C22.9829 52.063 21.8353 57.0752 20.7253 61.9222L20.7175 61.9567C20.0162 65.0161 19.354 67.9055 18.637 70.356C18.5421 70.6813 18.4741 70.9854 18.3678 71.0276C18.0833 71.1405 16.991 70.2885 14.9767 66.7045C13.2407 63.6147 11.3255 59.1866 9.583 54.2357C5.6519 43.066 3.21011 31.2027 3.21011 23.2758C3.21011 13.7857 8.64456 3.96956 17.7381 3.96956C20.0956 3.96956 23.2062 5.30796 26.0591 7.54963C26.4729 7.87462 27.0667 8.43925 27.6412 8.98503C27.8731 9.20607 28.1016 9.42314 28.3147 9.62161C29.0032 10.2584 29.9324 11.0917 31.0237 11.8859C31.5972 12.3049 32.1196 12.6767 32.7034 12.9839C35.0703 14.2258 37.5795 14.8561 40.1611 14.8561C42.7977 14.8561 46.677 14.0179 46.613 13.3667C46.5493 12.7157 41.8697 13.6472 37.0102 11.6993C35.7478 11.1932 34.1206 10.6251 34.1214 9.98802C34.1216 9.81238 34.5786 9.50228 34.9012 9.26412C35.2456 9.00984 35.6362 8.72107 36.1335 8.38169C38.8626 6.51959 42.6003 3.96956 45.6718 3.96956C54.6028 3.96956 60.0036 13.4369 60.1945 22.765C60.197 22.8687 60.209 23.059 60.0397 23.187C59.4599 23.5804 58.6059 24.2795 58.2537 24.2795C57.8539 24.2795 56.5892 23.2654 55.9549 22.8317C53.4004 21.0835 49.9014 18.6895 46.5631 18.6895C42.3409 18.6895 38.4646 20.8369 35.6487 24.736C32.977 28.4334 31.5065 33.2968 31.5065 38.4306ZM76.5518 64.0433C75.0864 68.2205 73.4836 71.9549 72.039 74.5583C70.7441 76.8927 69.9198 78.3085 69.5617 78.0252C69.4608 77.9453 69.3081 77.4737 69.2714 77.3455C68.6935 75.34 68.2806 73.3524 67.7181 70.8053C66.8188 66.7288 65.888 62.5139 64.6039 59.1871C62.93 54.8534 60.886 52.7467 58.3546 52.7467H58.1528C55.7072 52.7467 53.7069 54.837 52.0385 59.1373C50.7596 62.434 49.7955 66.6412 48.8637 70.7113C48.2751 73.2779 47.72 75.7019 47.1202 77.7541C47.0787 77.897 47.0175 78.0597 46.9507 78.0962C46.6596 78.2527 45.8267 77.1406 44.4206 74.6382C42.9756 72.0678 41.3794 68.3766 39.9254 64.2453C36.6455 54.9248 34.6081 45.0336 34.6081 38.4309C34.6081 30.6121 39.0794 22.5251 46.5623 22.5251C48.4977 22.5251 51.0605 23.6308 53.4166 25.4822C53.7526 25.7459 54.2409 26.2103 54.7212 26.6663C54.9176 26.8534 55.1112 27.037 55.2921 27.2047C55.8701 27.741 56.6524 28.4426 57.5784 29.1166C58.0665 29.4729 58.5104 29.7887 59.0092 30.0504C61.016 31.1038 63.1429 31.6381 65.3323 31.6381C67.5743 31.6381 71.8841 30.8547 71.8396 29.9688C71.8109 29.4009 66.9963 30.1452 62.7483 28.4927C61.8849 28.1568 60.6557 27.6314 60.6252 27.4279C60.5962 27.2367 60.8802 27.036 61.0373 26.9199C61.3234 26.7085 61.6473 26.4693 62.061 26.1873C64.326 24.6417 67.428 22.5251 69.9463 22.5251C77.4291 22.5251 81.9004 30.6123 81.9004 38.4309C81.8988 44.8309 79.85 54.6453 76.5518 64.0433Z"/>
    </symbol>

    <symbol id="item-5" viewBox="0 0 86 86">
        <path d="M79.4206 9.62367C74.9611 4.63087 68.8236 1.88143 62.1382 1.88143C56.9116 1.88143 51.2745 4.99111 47.1556 7.26318C45.6562 8.09088 43.6057 9.22248 42.9996 9.29698C42.3962 9.22375 40.3563 8.0951 38.8604 7.26761C34.7521 4.99449 29.1255 1.88143 23.862 1.88143C17.1764 1.88143 11.0387 4.63087 6.57899 9.62367C2.33643 14.3736 0 20.6259 0 27.2287C0 36.6612 3.38721 50.0749 9.06062 63.1118C11.5847 68.912 14.2714 73.924 16.8303 77.6061C19.876 81.9885 22.4898 84.1186 24.8211 84.1186C25.8557 84.1186 27.75 83.6798 28.8128 80.7404C29.8456 77.8842 30.7746 74.6057 31.7598 71.1282C34.367 61.9255 37.6115 50.4719 42.8352 50.4719H43.165C45.4875 50.4719 47.5665 52.4612 49.5205 56.5537C51.4562 60.6076 52.9278 65.9982 54.3529 71.2179C55.2948 74.6686 56.1848 77.9273 57.1843 80.7326C58.2255 83.6539 60.0985 84.0907 61.1236 84.0913C63.4433 84.0911 66.0545 81.9284 69.1068 77.4797C71.6591 73.7598 74.3516 68.698 76.8932 62.8416C82.5955 49.6999 86 36.3868 86 27.2285C86 20.6257 83.6634 14.3734 79.4206 9.62367ZM60.5259 16.3947C60.4723 16.3911 55.0718 16.1326 50.1556 14.8307C47.9388 14.2438 45.3176 13.0645 45.3176 12.7146C45.3176 12.374 48.1654 10.7158 48.8522 10.3368C52.6349 8.25001 57.8149 5.39209 62.1382 5.39209C74.8769 5.39209 82.4893 16.4947 82.4893 27.2287C82.4893 35.8012 79.111 48.9119 73.6723 61.4439C71.2544 67.0162 68.6047 72.0059 66.212 75.4933C63.4511 79.5173 61.6647 80.6871 61.1236 80.5805C60.7914 80.5148 60.75 80.2793 60.4917 79.5538C59.5355 76.871 58.6624 73.6735 57.7383 70.2882C56.2741 64.9257 54.7607 59.3802 52.6885 55.0405C50.0924 49.6037 46.9773 46.9608 43.165 46.9608H42.8352C39.1629 46.9608 36.1196 49.5826 33.5323 54.9757C31.467 59.2803 29.8986 64.8168 28.382 70.1711C27.4155 73.5826 26.5027 76.8054 25.5115 79.5464C25.2926 80.1514 25.2251 80.5465 24.8211 80.6077C24.5046 80.6558 23.1524 80.5509 19.7131 75.6022C17.3186 72.157 14.6787 67.2235 12.2796 61.7107C6.87065 49.2816 3.51066 36.069 3.51066 27.2285C3.51066 16.4945 11.1231 5.39188 23.862 5.39188C27.1732 5.39188 31.5247 6.90061 35.5019 9.42783C36.0852 9.79862 36.9066 10.4298 37.701 11.0406C38.018 11.2844 38.3303 11.5243 38.6211 11.7432C39.5535 12.4415 40.8134 13.3547 42.2928 14.2256C42.9236 14.5979 43.7085 15.0614 44.5421 15.4151C47.7298 16.7683 51.1099 17.4543 54.588 17.4543C58.1321 17.4543 60.5158 16.824 60.5392 16.8166C60.5392 16.8166 61.0725 16.6756 61.0556 16.537C61.0387 16.3983 60.5259 16.3947 60.5259 16.3947Z"/>
    </symbol>

    <symbol id="item-6" viewBox="0 0 86 86">
        <path d="M72.5752 34.5548C71.8182 34.4944 71.1139 35.0565 71.0438 35.8324C69.0187 58.2269 62.6935 83.1793 56.8853 83.1836C55.4582 82.6572 54.0682 74.7677 53.1481 69.5479C51.2221 58.6132 49.2314 47.3059 42.9945 47.2839C37.7755 47.3065 35.7322 57.5294 33.567 68.3526C32.4937 73.7181 30.6976 82.7008 29.1451 83.1798C24.4198 83.1798 17.4206 63.6249 14.9325 35.5651C14.8625 34.7901 14.1735 34.2308 13.4042 34.2854C12.6276 34.3547 12.055 35.0394 12.1236 35.8147C12.168 36.3163 16.9153 85.9989 29.1451 85.9989C32.7381 85.9989 34.1483 79.8224 36.3315 68.9046C37.8287 61.4228 40.0907 50.1161 42.9945 50.1037C46.863 50.1176 48.8909 61.6306 50.3721 70.0369C52.0645 79.6496 53.184 85.9996 56.8556 85.9996C69.1954 85.9996 73.807 36.5853 73.8529 36.0858C73.9226 35.3105 73.3509 34.6256 72.5752 34.5548Z"/>
        <path d="M56.8551 0C53.2316 0 50.1492 1.46065 47.4291 2.74911C45.8213 3.51116 43.9981 4.37533 42.9998 4.37533C42.0014 4.37533 40.1784 3.51201 38.5691 2.74911C35.8499 1.46065 32.7684 0 29.1448 0C16.4688 0 7.26819 12.8803 7.26819 30.6273C7.26819 33.8438 9.88463 36.4611 13.102 36.4611C16.3194 36.4611 18.9359 33.8441 18.9359 30.6273C18.9359 19.996 23.4206 11.6675 29.145 11.6675C30.1434 11.6675 31.9664 12.5308 33.5757 13.2937C36.2949 14.5821 39.3767 16.0428 43.0002 16.0428C46.6237 16.0428 49.7061 14.5821 52.4262 13.2937C54.034 12.5316 55.8572 11.6675 56.8555 11.6675C62.58 11.6675 67.0647 19.996 67.0647 30.6273C67.0647 33.8438 69.6811 36.4611 72.8986 36.4611C76.116 36.4611 78.7324 33.8441 78.7324 30.6273C78.7318 12.8803 69.5312 0 56.8551 0ZM72.8981 33.5441C71.2903 33.5441 69.9813 32.2358 69.9813 30.6273C69.9813 18.1555 64.3387 8.75066 56.8553 8.75066C55.2 8.75066 53.1538 9.72058 51.1768 10.6576C48.7338 11.8149 45.9666 13.126 43 13.126C40.0334 13.126 37.2661 11.8149 34.8246 10.6576C32.8463 9.72058 30.8001 8.75066 29.1448 8.75066C21.6615 8.75066 16.0188 18.1555 16.0188 30.6273C16.0188 32.236 14.7099 33.5441 13.102 33.5441C11.4942 33.5441 10.1852 32.2358 10.1852 30.6273C10.1852 14.5706 18.1599 2.91681 29.145 2.91681C32.1114 2.91681 34.8789 4.22792 37.3204 5.3852C39.2987 6.32222 41.3458 7.29214 43.0002 7.29214C44.6546 7.29214 46.7017 6.32222 48.6787 5.3852C51.1217 4.22792 53.8889 2.91681 56.8555 2.91681C67.8404 2.91681 75.8154 14.5704 75.8154 30.6273C75.8149 32.236 74.506 33.5441 72.8981 33.5441Z"/>
    </symbol>

    <symbol id="item-7" viewBox="0 0 90 90">
        <path d="M56.8995 18.9656C53.5037 18.9656 49.924 20.9402 47.3069 22.3839C46.6828 22.7281 45.4338 23.5626 45.0002 23.5624C44.5695 23.5624 43.3254 22.7303 42.7018 22.3856C40.0933 20.9423 36.521 18.9656 33.1008 18.9656C28.7796 18.9656 24.8127 20.7424 21.9312 23.969C19.2001 27.0268 17.6956 31.0484 17.6956 35.294C17.6956 41.232 19.8192 49.6578 23.3765 57.8319C24.9614 61.4733 26.6507 64.6228 28.2621 66.942C30.2699 69.831 32.0476 71.2355 33.697 71.2355C34.4892 71.2355 35.9349 70.9138 36.713 68.76C37.3608 66.9682 37.9412 64.9207 38.5584 62.7425C39.9605 57.7936 42.0798 50.3142 44.8976 50.3142H45.1029C46.3058 50.3142 47.4309 51.4455 48.5418 53.7724C49.7234 56.2471 50.6315 59.5742 51.5103 62.7926C52.0988 64.9484 52.6547 66.9849 53.2844 68.7525C54.0485 70.8971 55.4817 71.2179 56.2688 71.2184C57.9124 71.2184 59.6892 69.7931 61.7007 66.861C63.3083 64.5175 65.0008 61.3373 66.5947 57.6638C70.1697 49.4264 72.3038 41.0641 72.3038 35.2945C72.3038 31.0488 70.7996 27.0268 68.0686 23.9694C65.1876 20.7424 61.2209 18.9656 56.8995 18.9656ZM63.5508 56.3421C62.0607 59.7756 60.4319 62.8441 58.9646 64.9829C57.6585 66.8867 57.3006 67.0887 56.6222 67.6963C56.5334 67.7758 56.4481 67.7409 56.4112 67.6382C55.8219 65.9924 55.284 64.0131 54.7114 61.9159C53.7952 58.5583 52.8473 55.0862 51.5371 52.3422C49.8189 48.7442 47.7142 46.9948 45.1029 46.9948H44.8976C42.3734 46.9948 40.3142 48.7302 38.6013 52.3004C37.2967 55.0195 36.3128 58.4921 35.3589 61.8589C34.7627 63.9632 34.1997 65.9501 33.5923 67.6298C33.5655 67.7038 33.5229 67.8655 33.3551 67.8157C32.944 67.6948 32.3165 66.9588 30.9875 65.0466C29.5193 62.9342 27.8973 59.9015 26.4197 56.507C23.0857 48.8452 21.0146 40.7165 21.0146 35.2934C21.0146 28.8984 25.5353 22.2838 33.1006 22.2838C35.0556 22.2838 37.6474 23.1886 40.0332 24.7044C40.3766 24.9227 40.8776 25.3077 41.3618 25.6802C41.5596 25.8325 41.7545 25.9819 41.9366 26.1192C42.5294 26.5629 43.3297 27.143 44.2718 27.6972C44.7707 27.9921 45.2247 28.2537 45.737 28.4708C47.7894 29.3421 49.9656 29.7839 52.2052 29.7839C54.5111 29.7839 59.2616 28.8068 59.2616 28.2756C59.2616 27.9134 53.6549 28.5924 49.5948 27.0354C48.951 26.7885 47.6374 26.359 47.6374 26.1904C47.6374 26.0697 47.7564 25.9603 47.8741 25.8895C48.1639 25.7162 48.4916 25.5202 48.9141 25.2871C51.2112 24.0196 54.3573 22.2838 56.8991 22.2838C64.4642 22.2838 68.985 28.8984 68.985 35.2934C68.9855 40.5513 66.9028 48.6166 63.5508 56.3421Z"/>
        <path d="M84.7567 21.1446C84.6462 18.5384 82.7654 15.776 80.3804 14.7195L48.8002 0.72595C47.7435 0.257782 46.3817 0 44.9654 0C43.5491 0 42.1875 0.257782 41.1308 0.72595L9.5504 14.7195C7.16023 15.7785 5.28777 18.5472 5.19534 21.1598C5.14837 22.4766 4.11918 53.5264 9.93214 63.699C15.7226 73.8318 40.0484 88.3952 41.0811 89.0101C42.1527 89.6487 43.5371 89.9998 44.9791 89.9998C46.4096 89.9998 47.7838 89.6534 48.8486 89.0242C49.8911 88.4089 74.4394 73.835 80.232 63.6983C86.0486 53.5198 84.8124 22.462 84.7567 21.1446ZM76.5081 61.5709C71.2767 70.7253 46.9133 85.1867 46.6682 85.3318C46.2657 85.569 45.6347 85.7114 44.9793 85.7114C44.3184 85.7114 43.6812 85.5673 43.2759 85.3256C43.0329 85.1806 18.8897 70.729 13.6562 61.5709C9.33229 54.0036 9.17681 29.9437 9.48177 21.3116C9.51587 20.3523 10.4104 19.0295 11.288 18.6407L42.8686 4.64737C43.3745 4.42304 44.1588 4.28922 44.9654 4.28922C45.7726 4.28922 46.5563 4.42304 47.0622 4.64737L78.6428 18.6407C79.5249 19.0317 80.4306 20.3611 80.4711 21.3251C80.8348 29.9542 80.8312 54.0049 76.5081 61.5709Z"/>
    </symbol>

    <symbol id="item-8" viewBox="0 0 83 83">
        <path d="M71.5372 6.42422C67.8367 2.2817 62.7434 0 57.1953 0C52.8505 0 48.1973 2.56732 44.7995 4.44184C43.6742 5.06246 41.9944 6.07927 41.4991 6.07947C41.0061 6.07968 39.334 5.06536 38.2135 4.44516C34.8229 2.5694 30.1794 0 25.8042 0C20.2561 0 15.1627 2.2817 11.4625 6.42422C7.94615 10.3612 6.00961 15.5425 6.00961 21.013C6.00961 24.5367 6.6572 28.6766 7.67255 33.3769C8.62775 37.7992 11.6562 41.5223 18.0566 44.3394C19.99 45.1906 23.4588 45.8546 24.0811 46.4769C24.8288 47.2247 25.628 49.9254 25.628 49.9254C25.628 49.9254 25.8095 50.5618 25.5426 50.5618C24.0653 50.5618 22.8635 51.7638 22.8635 53.2409C22.8635 54.718 24.0653 55.92 25.5426 55.92C25.5426 55.92 26.8317 55.92 27.2615 55.92C27.5986 55.92 27.7083 56.2664 27.7083 56.2664L28.6359 59.1299C28.6359 59.1299 28.7137 59.6553 28.0966 59.6553C26.6195 59.6553 25.4179 60.857 25.4179 62.3341C25.4179 63.8111 26.6195 65.0132 28.0966 65.0132C28.0966 65.0132 29.6874 65.0132 30.2176 65.0132C30.6065 65.0132 30.7364 65.3268 30.7364 65.3268L31.8152 68.5546C31.8152 68.5546 31.877 68.7487 31.6436 68.7487C31.4009 68.7487 30.6725 68.7487 30.6725 68.7487C29.195 68.7487 27.9933 69.9508 27.9933 71.4279C27.9933 72.9054 29.195 74.107 30.6725 74.107C30.6725 74.107 32.6779 74.107 33.3464 74.107C33.7094 74.107 33.7658 74.3918 33.7658 74.3918L35.4198 79.34L35.4296 79.3659C36.4163 81.7768 38.4134 83 41.3655 83H41.5296C44.4815 83 46.4784 81.777 47.4722 79.3483C47.4722 79.3483 48.7126 75.5683 49.171 74.3246C49.2619 74.0779 49.4303 74.107 49.4303 74.107H52.3272C53.8043 74.107 55.0061 72.9054 55.0061 71.4279C55.0061 69.9508 54.2789 68.7487 52.3272 68.7487C51.9163 68.7487 51.512 68.75 51.3361 68.75C51.0638 68.75 51.2324 68.2833 51.2324 68.2833L52.2177 65.3144C52.2177 65.3144 52.2695 65.0138 52.555 65.0138C53.1418 65.0138 54.9026 65.0138 54.9026 65.0138C56.3797 65.0138 57.5815 63.8118 57.5815 62.3347C57.5815 60.8578 56.5079 59.6562 55.0308 59.6562C54.7166 59.6562 54.6072 59.6663 54.4863 59.6663C54.1623 59.6663 54.3436 59.299 54.3436 59.299C54.3436 59.299 55.0449 56.9874 55.3417 56.0967C55.4067 55.9022 55.6141 55.9204 55.6141 55.9204H57.4565C58.9335 55.9204 60.1352 54.7184 60.1352 53.2413C60.1352 51.7642 58.9335 50.5622 57.4565 50.5622C57.2217 50.5622 57.2656 50.2523 57.3038 50.0988C57.5459 49.122 57.9983 47.1129 58.8595 46.4773C59.673 45.8768 62.9502 45.1724 64.8421 44.3398C71.1045 41.5829 74.3819 37.4198 75.2054 33.6305C76.2464 28.8408 76.9901 24.5079 76.9901 21.0132C76.9903 15.5425 75.0537 10.3618 71.5372 6.42422ZM44.3373 78.0929C43.7514 79.5125 41.977 79.6227 41.4475 79.6227C40.9189 79.6227 39.1523 79.5129 38.5615 78.1035L37.2875 74.2835C37.2875 74.2835 37.257 74.1064 37.5034 74.1064C39.5495 74.1064 43.5367 74.1064 45.5475 74.1064C45.6902 74.1064 45.6597 74.1885 45.6597 74.1885L44.3373 78.0929ZM47.4122 68.7483C44.4618 68.7483 38.5837 68.7483 35.6105 68.7483C35.429 68.7483 35.39 68.5681 35.39 68.5681L34.2419 65.1507C34.2419 65.1507 34.2232 65.0134 34.4566 65.0134C38.0345 65.0134 45.0905 65.0134 48.635 65.0134C48.769 65.0134 48.7346 65.1123 48.7346 65.1123L47.5234 68.6861C47.524 68.6859 47.49 68.7483 47.4122 68.7483ZM50.6404 59.5278C50.6404 59.5278 50.6101 59.6553 50.4761 59.6553C49.1982 59.6553 36.8565 59.6553 32.5943 59.6553C32.4041 59.6553 32.3609 59.5363 32.3609 59.5363L31.2367 56.137C31.2367 56.137 31.1639 55.9148 31.4491 55.9148C37.0237 55.9148 46.6138 55.92 51.6688 55.92C51.8503 55.92 51.8016 56.0602 51.8016 56.0602L50.6404 59.5278ZM53.2938 50.5609C47.3683 50.5609 29.6559 50.5479 29.6559 50.5479C29.6559 50.5479 29.4744 50.5479 29.3879 50.3664C29.1385 49.8432 28.6532 48.5429 28.4567 47.8007C28.3478 47.3894 28.7397 47.5142 28.7397 47.5142C32.8822 48.307 36.8849 48.6242 41.4493 48.6242C46.0791 48.6242 50.2523 48.2774 54.4434 47.4624C54.4434 47.4624 54.7373 47.4105 54.6688 47.5978C54.4411 48.222 53.9827 49.5989 53.7736 50.2322C53.706 50.4354 53.5012 50.5609 53.2938 50.5609ZM72.2387 32.5797C72.0954 33.2045 71.6382 34.3443 71.4016 34.9848C70.5177 37.3769 67.5075 39.5295 63.5013 41.2935C61.4445 42.1989 59.1182 42.9712 56.5873 43.5885L56.1459 43.6951C51.6805 44.7424 46.5985 45.2958 41.4491 45.2958C36.4431 45.2958 31.4908 44.7712 27.1145 43.7779L26.6841 43.6789C24.0116 43.0481 21.5606 42.246 19.3974 41.2939C15.4708 39.5652 12.2774 37.1647 11.3287 34.8552C11.024 34.1132 10.5118 32.3206 10.5118 32.3206C9.48899 27.9603 9.33757 24.1744 9.33757 21.0134C9.33757 12.3201 15.4969 3.32858 25.8039 3.32858C28.4789 3.32858 32.0023 4.55281 35.2298 6.60364C35.7011 6.90337 36.3734 7.42007 37.0233 7.91997C37.2815 8.11848 37.5362 8.31408 37.7737 8.4933C38.5443 9.06974 39.5856 9.82457 40.8053 10.5425C41.4468 10.9212 42.0305 11.2571 42.6765 11.5315C45.3187 12.6528 48.1202 13.2216 51.003 13.2216C53.9445 13.2216 57.5575 12.507 57.5077 12.0986C57.4579 11.6902 51.4357 11.6902 47.4259 10.6279C45.8252 10.2042 44.0113 9.51716 44.0113 9.14068C44.0113 8.73931 44.5773 8.42444 45.0216 8.15914C45.4091 7.92744 45.8486 7.66484 46.4089 7.35577C49.4894 5.65632 53.7078 3.32879 57.1951 3.32879C67.5021 3.32879 73.6615 12.3203 73.6615 21.0136C73.6617 24.1312 73.2522 28.1661 72.2387 32.5797Z"/>
    </symbol>
    
</svg>
